<svg width="24" height="24" viewBox="0 0 24 24" fill="none" xmlns="http://www.w3.org/2000/svg">
<path d="M12 16.8V16.8422M9.60107 9.04529C9.60107 7.69477 10.6756 6.59996 12.0011 6.59996C13.3265 6.59996 14.4011 7.69477 14.4011 9.04529C14.4011 10.3958 13.3265 11.4906 12.0011 11.4906C12.0011 11.4906 12 12.2205 12 13.1208M21.6 5.99996L21.6 18.0001C21.6 19.9883 19.9882 21.6001 18 21.6001H6.00002C4.0118 21.6001 2.40002 19.9883 2.40002 18.0001V5.99996C2.40002 4.01174 4.0118 2.39996 6.00002 2.39996H18C19.9882 2.39996 21.6 4.01174 21.6 5.99996Z" stroke="#A5B2BA" stroke-width="2" stroke-linecap="round" stroke-linejoin="round"/>
</svg>
