<svg width="24" height="24" viewBox="0 0 24 24" fill="none" xmlns="http://www.w3.org/2000/svg">
<path d="M12 16.8004V16.8426M9.60107 9.04572C9.60107 7.6952 10.6756 6.60039 12.0011 6.60039C13.3265 6.60039 14.4011 7.6952 14.4011 9.04572C14.4011 10.3962 13.3265 11.491 12.0011 11.491C12.0011 11.491 12 12.2209 12 13.1213M21.6 6.00039L21.6 18.0005C21.6 19.9887 19.9882 21.6005 18 21.6005H6.00002C4.0118 21.6005 2.40002 19.9887 2.40002 18.0005V6.00039C2.40002 4.01217 4.0118 2.40039 6.00002 2.40039H18C19.9882 2.40039 21.6 4.01217 21.6 6.00039Z" stroke="#E7582C" stroke-width="2" stroke-linecap="round" stroke-linejoin="round"/>
</svg>
