<svg width="25" height="24" viewBox="0 0 25 24" fill="none" xmlns="http://www.w3.org/2000/svg">
<path d="M21.3333 10H3.33331C3.0681 10 2.81374 10.1054 2.62621 10.2929C2.43867 10.4804 2.33331 10.7348 2.33331 11C2.33336 12.7553 2.79544 14.4797 3.67312 15.9999C4.5508 17.52 5.81316 18.7823 7.33331 19.66V21C7.33331 21.2652 7.43867 21.5196 7.62621 21.7071C7.81374 21.8946 8.0681 22 8.33331 22H16.3333C16.5985 22 16.8529 21.8946 17.0404 21.7071C17.228 21.5196 17.3333 21.2652 17.3333 21V19.66C18.8535 18.7823 20.1158 17.52 20.9935 15.9999C21.8712 14.4797 22.3333 12.7553 22.3333 11C22.3333 10.7348 22.228 10.4804 22.0404 10.2929C21.8529 10.1054 21.5985 10 21.3333 10ZM15.8833 18.16C15.7169 18.2439 15.5772 18.3726 15.48 18.5316C15.3828 18.6906 15.332 18.8736 15.3333 19.06V20H9.33331V19.06C9.33461 18.8736 9.2838 18.6906 9.18662 18.5316C9.08944 18.3726 8.94975 18.2439 8.78331 18.16C7.60022 17.575 6.58024 16.7064 5.81427 15.6316C5.04831 14.5568 4.56015 13.3092 4.39331 12H20.2733C20.1065 13.3092 19.6183 14.5568 18.8524 15.6316C18.0864 16.7064 17.0664 17.575 15.8833 18.16ZM9.33331 9V7.93C9.33183 6.75363 8.8728 5.62397 8.05331 4.78C7.82146 4.54572 7.63843 4.26775 7.51484 3.96219C7.39124 3.65664 7.32954 3.32958 7.33331 3C7.33331 2.44772 6.8856 2 6.33331 2C5.78103 2 5.33331 2.44772 5.33331 3C5.32958 4.18329 5.789 5.32106 6.61331 6.17C7.0767 6.63831 7.3356 7.27118 7.33331 7.93V9H9.33331ZM13.3333 9V7.93C13.3318 6.75363 12.8728 5.62397 12.0533 4.78C11.8215 4.54572 11.6384 4.26775 11.5148 3.96219C11.3912 3.65664 11.3295 3.32958 11.3333 3C11.3333 2.44772 10.8856 2 10.3333 2C9.78103 2 9.33331 2.44772 9.33331 3C9.33479 4.17637 9.79383 5.30603 10.6133 6.15C10.8452 6.38428 11.0282 6.66225 11.1518 6.96781C11.2754 7.27336 11.3371 7.60042 11.3333 7.93V9H13.3333ZM17.3333 9V7.93C17.3318 6.75363 16.8728 5.62397 16.0533 4.78C15.8215 4.54572 15.6384 4.26775 15.5148 3.96219C15.3912 3.65664 15.3295 3.32958 15.3333 3C15.3333 2.44772 14.8856 2 14.3333 2C13.781 2 13.3333 2.44772 13.3333 3C13.3348 4.17637 13.7938 5.30603 14.6133 6.15C14.8452 6.38428 15.0282 6.66225 15.1518 6.96781C15.2754 7.27336 15.3371 7.60042 15.3333 7.93V9H17.3333Z" fill="#A5B2BA"/>
</svg>
