<svg width="34" height="34" viewBox="0 0 34 34" fill="none" xmlns="http://www.w3.org/2000/svg">
<path fill-rule="evenodd" clip-rule="evenodd" d="M18.6583 17.9097C18.2443 17.9097 17.9083 18.2454 17.9083 18.6597V20.8026C17.9083 21.2168 18.2443 21.5526 18.6583 21.5526H20.8018C21.2158 21.5526 21.5518 21.2168 21.5518 20.8026V18.6597C21.5518 18.2454 21.2158 17.9097 20.8018 17.9097H18.6583ZM26.8583 26.1068C26.4428 26.1068 26.1083 26.4426 26.1083 26.8565V29C26.1083 29.414 26.4428 29.75 26.8583 29.75H29.0003C29.4143 29.75 29.7503 29.414 29.7503 29V26.8565C29.7503 26.4426 29.4143 26.1068 29.0003 26.1068H26.8583ZM18.6583 26.1068C18.2443 26.1068 17.9083 26.4426 17.9083 26.8565V29C17.9083 29.414 18.2443 29.75 18.6583 29.75H20.8018C21.2158 29.75 21.5518 29.414 21.5518 29V26.8565C21.5518 26.4426 21.2158 26.1068 20.8018 26.1068H18.6583ZM26.8554 17.9097C26.4414 17.9097 26.1054 18.2454 26.1054 18.6597V20.8026C26.1054 21.2168 26.4414 21.5526 26.8554 21.5526H28.9989C29.4129 21.5526 29.7489 21.2168 29.7489 20.8026V18.6597C29.7489 18.2454 29.4129 17.9097 28.9989 17.9097H26.8554ZM22.7568 22.0082C22.3428 22.0082 22.0068 22.3439 22.0068 22.7582V24.9011C22.0068 25.3153 22.3428 25.6512 22.7568 25.6512H24.9003C25.3143 25.6512 25.6503 25.3153 25.6503 24.9011V22.7582C25.6503 22.3439 25.3143 22.0082 24.9003 22.0082H22.7568Z" fill="white"/>
<path fill-rule="evenodd" clip-rule="evenodd" d="M14.5896 16.0896C15.4176 16.0896 16.0896 15.4181 16.0896 14.5896V5.75001C16.0896 4.92156 15.4176 4.25 14.5896 4.25H5.75001C4.92201 4.25 4.25 4.92156 4.25 5.75001V14.5896C4.25 15.4181 4.92201 16.0896 5.75001 16.0896H14.5896ZM7.50484 13.5853C7.09084 13.5853 6.75483 13.2496 6.75483 12.8353V7.50484C6.75483 7.09054 7.09084 6.75483 7.50484 6.75483H12.8344C13.2484 6.75483 13.5844 7.09054 13.5844 7.50484V12.8353C13.5844 13.2496 13.2484 13.5853 12.8344 13.5853H7.50484ZM29.7505 14.5896C29.7505 15.4181 29.0785 16.0896 28.2505 16.0896H19.4109C18.5829 16.0896 17.9109 15.4181 17.9109 14.5896V5.75001C17.9109 4.92156 18.5829 4.25 19.4109 4.25H28.2505C29.0785 4.25 29.7505 4.92156 29.7505 5.75001V14.5896ZM21.1657 13.5853C20.7517 13.5853 20.4157 13.2496 20.4157 12.8353V7.50484C20.4157 7.09054 20.7517 6.75483 21.1657 6.75483H26.4952C26.9093 6.75483 27.2453 7.09054 27.2453 7.50484V12.8353C27.2453 13.2496 26.9093 13.5853 26.4952 13.5853H21.1657ZM14.5896 29.7477C15.4176 29.7477 16.0896 29.0757 16.0896 28.2477V19.4079C16.0896 18.5795 15.4176 17.9079 14.5896 17.9079H5.75001C4.92201 17.9079 4.25 18.5795 4.25 19.4079V28.2477C4.25 29.0757 4.92201 29.7477 5.75001 29.7477H14.5896ZM6.75483 26.4948C6.75483 26.9085 7.09084 27.2445 7.50484 27.2445H12.8344C13.2484 27.2445 13.5844 26.9085 13.5844 26.4948V21.1642C13.5844 20.7501 13.2484 20.4142 12.8344 20.4142H7.50484C7.09084 20.4142 6.75483 20.7501 6.75483 21.1642V26.4948Z" fill="white"/>
</svg>
