<svg width="16" height="16" viewBox="0 0 16 16" fill="none" xmlns="http://www.w3.org/2000/svg">
<path d="M10.1628 10.3116C10.5558 10.4426 10.9805 10.2302 11.1115 9.83727C11.2425 9.44431 11.0301 9.01957 10.6372 8.88858L10.1628 10.3116ZM8 8.8001H7.25C7.25 9.12292 7.45658 9.40952 7.76283 9.51161L8 8.8001ZM8.75 5.45494C8.75 5.04072 8.41422 4.70494 8 4.70494C7.58579 4.70494 7.25 5.04072 7.25 5.45494H8.75ZM10.6372 8.88858L8.23718 8.08858L7.76283 9.51161L10.1628 10.3116L10.6372 8.88858ZM8.75 8.8001V5.45494H7.25V8.8001H8.75ZM13.65 8.0001C13.65 11.1205 11.1204 13.6501 8 13.6501V15.1501C11.9488 15.1501 15.15 11.9489 15.15 8.0001H13.65ZM8 13.6501C4.8796 13.6501 2.35001 11.1205 2.35001 8.0001H0.850006C0.850006 11.9489 4.05117 15.1501 8 15.1501V13.6501ZM2.35001 8.0001C2.35001 4.87969 4.8796 2.3501 8 2.3501V0.850098C4.05117 0.850098 0.850006 4.05126 0.850006 8.0001H2.35001ZM8 2.3501C11.1204 2.3501 13.65 4.87969 13.65 8.0001H15.15C15.15 4.05126 11.9488 0.850098 8 0.850098V2.3501Z" fill="#E7582C"/>
</svg>
